<?xml version="1.0" standalone="no"?><!DOCTYPE svg PUBLIC "-//W3C//DTD SVG 1.1//EN" "http://www.w3.org/Graphics/SVG/1.1/DTD/svg11.dtd"><svg t="1581841917611" class="icon" viewBox="0 0 1024 1024" version="1.1" xmlns="http://www.w3.org/2000/svg" p-id="7251" xmlns:xlink="http://www.w3.org/1999/xlink" width="32" height="32"><defs><style type="text/css"></style></defs><path d="M566.784 503.552l288.9728-275.2a34.816 34.816 0 0 0 0-50.688l-1.536-1.536a39.168 39.168 0 0 0-53.248 0L512 451.7888 223.0272 176.1792a39.168 39.168 0 0 0-53.248 0l-1.536 1.4848a34.2016 34.2016 0 0 0 0 50.688L457.216 503.552l-288.9728 275.2512a34.816 34.816 0 0 0 0 50.688l1.536 1.4848a39.168 39.168 0 0 0 53.248 0L512 555.776l288.9728 275.2a39.168 39.168 0 0 0 53.248 0l1.536-1.536a34.816 34.816 0 0 0 0-50.688L566.784 503.6032z" p-id="7252"></path></svg>