<?xml version="1.0" standalone="no"?><!DOCTYPE svg PUBLIC "-//W3C//DTD SVG 1.1//EN" "http://www.w3.org/Graphics/SVG/1.1/DTD/svg11.dtd"><svg t="1581843324499" class="icon" viewBox="0 0 1024 1024" version="1.1" xmlns="http://www.w3.org/2000/svg" p-id="1949" xmlns:xlink="http://www.w3.org/1999/xlink" width="32" height="32"><defs><style type="text/css"></style></defs><path d="M486.528 863.232c32.384 0 64.768-4.864 96-14.336 51.968-15.872 99.712-44.8 137.856-83.456 9.216-9.344 9.216-24.832-0.128-34.304-4.608-4.608-10.624-7.168-17.024-7.168-6.272 0-12.288 2.432-16.768 7.04-33.152 33.664-72.96 57.728-118.144 71.552-26.752 8.192-54.4 12.288-82.176 12.288-127.104 0-242.56-87.424-280.832-212.48-23.296-76.032-16.384-156.288 19.328-225.92 35.712-69.632 96-120.448 169.728-142.976 26.752-8.192 54.4-12.288 82.176-12.288 127.104 0 242.56 87.424 280.832 212.48 9.472 30.976 13.952 62.976 13.44 94.976l-55.552-55.552c-4.352-4.352-10.112-6.656-16.256-6.656-6.4 0-12.416 2.56-17.024 7.168-4.48 4.48-7.04 10.496-7.168 16.768-0.128 6.272 2.304 12.16 6.656 16.512l89.216 89.216c1.152 2.56 2.688 4.864 4.736 6.912 4.352 4.352 10.112 6.656 16.256 6.656 6.4 0 12.416-2.56 17.024-7.168l97.536-97.536c9.344-9.344 9.472-24.192 0.512-33.28-4.352-4.352-10.112-6.656-16.256-6.656-6.4 0-12.416 2.56-17.024 7.168l-54.784 54.784c0.384-36.096-4.864-72.192-15.616-107.136-22.272-72.704-65.92-134.912-126.08-179.712-29.056-21.632-60.928-38.272-94.848-49.792-34.432-11.648-70.016-17.536-105.984-17.536-32.384 0-64.768 4.864-96 14.336-43.392 13.312-82.944 34.944-117.248 64.256-33.152 28.416-60.288 62.72-80.512 102.272-20.224 39.424-32.64 81.92-36.736 126.336-4.352 45.952 0.512 91.904 14.08 136.576 22.272 72.704 65.92 134.912 126.08 179.712C314.88 817.92 346.752 834.56 380.672 846.08c34.176 11.136 69.888 17.152 105.856 17.152-0.128 0 0 0 0 0z" fill="" p-id="1950"></path><path d="M873.984 472.32c8.96-8.96 23.296-9.216 32-0.512 8.704 8.704 8.448 23.04-0.512 32l-97.536 97.536c-8.96 8.96-23.296 9.216-32 0.512-2.048-2.048-3.584-4.352-4.608-6.784l-89.344-89.344c-8.704-8.704-8.448-23.04 0.512-32s23.296-9.216 32-0.512l57.088 57.088c0.768-32.512-3.584-65.28-13.44-97.28-48.128-157.568-211.2-247.424-364.16-200.576-152.96 46.72-237.952 212.352-189.696 370.048C252.544 760.064 415.616 849.92 568.448 803.2c45.44-13.824 85.76-38.528 118.528-71.68 8.96-9.088 23.552-8.96 32.512 0.256s9.088 23.936 0.128 33.024c-38.016 38.528-84.864 67.2-137.472 83.2-177.28 54.144-366.08-49.792-421.76-232.064S203.008 241.92 380.288 187.648c177.28-54.144 366.08 49.792 421.76 232.064 10.88 35.712 16.128 72.448 15.488 109.056l56.448-56.448z m-56.32 56.32" fill="" p-id="1951"></path></svg>